<mxfile host="app.diagrams.net" modified="2023-09-20T07:09:32.675Z" agent="Mozilla/5.0 (Macintosh; Intel Mac OS X 10_15_7) AppleWebKit/537.36 (KHTML, like Gecko) Chrome/116.0.0.0 Safari/537.36" etag="h5YqzwJ9KDhIvTADTW1t" version="21.6.8" type="github">
  <diagram name="Page-1" id="bfe91b75-5d2c-26a0-9c1d-138518896778">
    <mxGraphModel dx="1152" dy="657" grid="0" gridSize="10" guides="1" tooltips="1" connect="1" arrows="1" fold="1" page="1" pageScale="1" pageWidth="1100" pageHeight="850" background="none" math="0" shadow="0">
      <root>
        <mxCell id="0" />
        <mxCell id="1" parent="0" />
      </root>
    </mxGraphModel>
  </diagram>
</mxfile>
